# xmcd CD database file
#
# Track frame offsets:
#	150
#	24152
#	87692
#	138257
#	151159
#	179854
#
# Disc length: 2751 seconds
#
# Revision: 0
# Processed by: cddbd v1.5.2PL0 Copyright (c) Steve Scherf et al.
# Submitted via: CDex 1.70beta3
#
DISCID=480abd06
DTITLE=Hino Terumasa - Unity -h factor-
DYEAR=2013
DGENRE=Jazz
TTITLE0=Unity
TTITLE1=Off the Record
TTITLE2=Funakura
TTITLE3=Fauna
TTITLE4=Beyond Descript
TTITLE5=Never Forget 311
EXTD=YEAR: 2013
EXTT0=
EXTT1=
EXTT2=
EXTT3=
EXTT4=
EXTT5=
PLAYORDER=
